<svg width="73" height="26" viewBox="0 0 73 26" fill="none" xmlns="http://www.w3.org/2000/svg">
<path d="M30.4233 18.15C29.6333 18.15 29.0283 17.925 28.6083 17.475C28.1983 17.025 27.9933 16.39 27.9933 15.57V9.93C27.9933 9.11 28.1983 8.475 28.6083 8.025C29.0283 7.575 29.6333 7.35 30.4233 7.35C31.2133 7.35 31.8133 7.575 32.2233 8.025C32.6433 8.475 32.8533 9.11 32.8533 9.93V11.04H31.2933V9.825C31.2933 9.175 31.0183 8.85 30.4683 8.85C29.9183 8.85 29.6433 9.175 29.6433 9.825V15.69C29.6433 16.33 29.9183 16.65 30.4683 16.65C31.0183 16.65 31.2933 16.33 31.2933 15.69V14.085H32.8533V15.57C32.8533 16.39 32.6433 17.025 32.2233 17.475C31.8133 17.925 31.2133 18.15 30.4233 18.15ZM34.5905 7.5L37.0355 7.5C37.8855 7.5 38.5055 7.7 38.8955 8.1C39.2855 8.49 39.4805 9.095 39.4805 9.915V10.56C39.4805 11.65 39.1205 12.34 38.4005 12.63V12.66C38.8005 12.78 39.0805 13.025 39.2405 13.395C39.4105 13.765 39.4955 14.26 39.4955 14.88V16.725C39.4955 17.025 39.5055 17.27 39.5255 17.46C39.5455 17.64 39.5955 17.82 39.6755 18H37.9955C37.9355 17.83 37.8955 17.67 37.8755 17.52C37.8555 17.37 37.8455 17.1 37.8455 16.71V14.79C37.8455 14.31 37.7655 13.975 37.6055 13.785C37.4555 13.595 37.1905 13.5 36.8105 13.5H36.2405V18H34.5905V7.5ZM36.8405 12C37.1705 12 37.4155 11.915 37.5755 11.745C37.7455 11.575 37.8305 11.29 37.8305 10.89V10.08C37.8305 9.7 37.7605 9.425 37.6205 9.255C37.4905 9.085 37.2805 9 36.9905 9H36.2405V12H36.8405ZM42.6709 13.53L40.6759 7.5H42.4309L43.5559 11.355H43.5859L44.7109 7.5H46.3159L44.3209 13.53V18H42.6709V13.53ZM49.9306 18.15C49.1206 18.15 48.5006 17.92 48.0706 17.46C47.6406 17 47.4256 16.35 47.4256 15.51V9.99C47.4256 9.15 47.6406 8.5 48.0706 8.04C48.5006 7.58 49.1206 7.35 49.9306 7.35C50.7406 7.35 51.3606 7.58 51.7906 8.04C52.2206 8.5 52.4356 9.15 52.4356 9.99V15.51C52.4356 16.35 52.2206 17 51.7906 17.46C51.3606 17.92 50.7406 18.15 49.9306 18.15ZM49.9306 16.65C50.5006 16.65 50.7856 16.305 50.7856 15.615V9.885C50.7856 9.195 50.5006 8.85 49.9306 8.85C49.3606 8.85 49.0756 9.195 49.0756 9.885V15.615C49.0756 16.305 49.3606 16.65 49.9306 16.65ZM54.3014 7.5H56.3714L57.9764 13.785H58.0064V7.5L59.4764 7.5V18H57.7814L55.8014 10.335H55.7714V18H54.3014V7.5Z" fill="white"/>
<rect x="5" y="11.5039" width="13.44" height="13.44" transform="rotate(-45 5 11.5039)" stroke="#0073D1" stroke-linejoin="round"/>
<rect x="5" y="13.4219" width="13.44" height="13.44" transform="rotate(-45 5 13.4219)" stroke="#0073D1" stroke-linejoin="round"/>
</svg>
